# Blender 4.2.3 LTS
# www.blender.org
mtllib fek KRASPEDO 20x40 CORNER.mtl
g KRASPEDO_20x40_CORNER_KRASPEDO_20x40_CORNER
v -0.100000 0.000000 -0.100000
v -0.100000 0.100000 0.100000
v -0.100000 0.000000 0.100000
v -0.100000 0.079487 -0.100000
v -0.100000 0.100000 -0.079487
v 0.100000 0.000000 0.100000
v 0.100000 0.000000 -0.100000
v 0.100000 0.079487 -0.100000
v 0.100000 0.080000 0.100000
v 0.080000 0.100000 0.100000
v 0.080000 0.100000 -0.079487
v 0.100000 0.080000 -0.099487
vn -1.0000 -0.0000 -0.0000
vn 1.0000 -0.0000 -0.0000
vn -0.0000 -0.0000 -1.0000
vn -0.0000 -1.0000 -0.0000
vn -0.0000 -0.0000 1.0000
vn -0.0000 0.7071 -0.7071
vn 0.7071 0.7071 -0.0000
vn -0.0000 1.0000 -0.0000
vt 0.250000 1.000000
vt -0.000000 1.000000
vt 0.000000 0.551282
vt 0.051282 0.500000
vt 0.250000 0.500000
vt 0.700000 0.500000
vt 0.700000 1.000000
vt 0.501282 1.000000
vt 0.500000 0.998718
vt 0.500000 0.500000
vt 0.700000 0.500000
vt 0.898718 0.500000
vt 0.898718 1.000000
vt 0.500000 0.000000
vt 0.500000 0.500000
vt -0.000000 0.500000
vt 0.000000 0.000000
vt 0.250000 0.500000
vt 0.500000 0.500000
vt 0.500000 1.000000
vt 0.300000 1.000000
vt 0.250000 0.950000
vt 0.948718 0.500000
vt 0.948718 0.050000
vt 0.998718 0.000000
vt 1.000000 0.000000
vt 1.000000 0.500000
vt 0.500000 0.000000
vt 0.500000 0.050000
vt 0.500000 0.500000
s 0
usemtl KRASPEDO_20x40_CORNER
f 3/1/1 2/2/1 5/3/1 4/4/1 1/5/1
f 6/6/2 7/7/2 8/8/2 12/9/2 9/10/2
f 4/7/3 8/11/3 7/12/3 1/13/3
f 1/14/4 7/15/4 6/16/4 3/17/4
f 2/18/5 3/19/5 6/20/5 9/21/5 10/22/5
f 5/23/6 11/24/6 12/25/6 8/26/6 4/27/6
f 9/28/7 12/25/7 11/24/7 10/29/7
f 5/23/8 2/30/8 10/29/8 11/24/8
