# Blender 4.2.3 LTS
# www.blender.org
mtllib KRASPEDO 20x40.mtl
g KRASPEDO_20x40_KRASPEDO_20x40
v 0.200000 0.000000 -0.100000
v 0.200000 0.100000 0.100000
v 0.200000 0.000000 0.100000
v -0.200000 0.000000 -0.100000
v -0.200000 0.100000 0.100000
v -0.200000 0.000000 0.100000
v 0.000000 0.000000 -0.100000
v 0.200000 0.050000 -0.100000
v -0.200000 0.050000 -0.100000
v 0.000000 0.100000 0.100000
v 0.200000 0.100000 0.000000
v -0.200000 0.100000 0.000000
v 0.000000 0.050000 -0.100000
v 0.000000 0.100000 0.000000
v 0.200000 0.079487 -0.100000
v 0.200000 0.100000 -0.079487
v -0.200000 0.100000 -0.079487
v -0.200000 0.079487 -0.100000
v 0.000000 0.079487 -0.100000
v 0.000000 0.100000 -0.079487
vn -0.0000 1.0000 -0.0000
vn -0.0000 -0.0000 1.0000
vn -0.0000 -0.0000 -1.0000
vn -0.0000 -1.0000 -0.0000
vn 1.0000 -0.0000 -0.0000
vn -1.0000 -0.0000 -0.0000
vn -0.0000 0.7071 -0.7071
vt 0.498047 0.414062
vt 0.998047 0.414062
vt 0.998047 0.664062
vt 0.498047 0.664062
vt 0.375000 0.000000
vt 0.625000 0.000000
vt 0.625000 0.500000
vt 0.625000 1.000000
vt 0.375000 1.000000
vt 0.500000 0.000000
vt 0.573718 0.000000
vt 0.573718 0.500000
vt 0.500000 0.500000
vt 0.000000 0.500000
vt 1.000000 0.500000
vt 1.000000 1.000000
vt 0.000000 1.000000
vt 0.496094 0.000501
vt 0.996094 0.000501
vt 0.996094 0.199219
vt 0.496094 0.199219
vt 0.375000 0.500000
vt 0.500000 1.000000
vt 0.625000 0.551082
vt 0.625000 0.749023
vt 0.625000 0.998047
vt 0.375000 0.998047
vt 0.750000 0.000000
vt 0.750000 0.250000
vt 0.750000 0.448718
vt 0.698718 0.500000
vt -0.003906 0.423828
vt 0.496094 0.423828
vt 0.496094 0.673828
vt -0.003906 0.673828
vt 0.573718 1.000000
vt 0.500000 0.051282
vt 0.000000 0.051282
vt 0.000000 0.000000
vt 1.000000 0.051282
vt 1.000000 0.000000
vt -0.003906 -0.001452
vt 0.496094 -0.001452
vt 0.496094 0.197266
vt -0.003906 0.197266
s 0
usemtl KRASPEDO_20x40
f 14/1/1 12/2/1 5/3/1 10/4/1
f 3/5/2 2/6/2 10/7/2 5/8/2 6/9/2
f 9/10/3 18/11/3 19/12/3 13/13/3
f 4/14/4 7/13/4 1/15/4 3/16/4 6/17/4
f 20/18/1 17/19/1 12/20/1 14/21/1
f 7/22/3 13/13/3 8/23/3 1/9/3
f 4/5/3 9/10/3 13/13/3 7/22/3
f 8/13/5 15/12/5 16/24/5 11/25/5 2/26/5 3/27/5 1/22/5
f 6/10/6 5/28/6 12/29/6 17/30/6 18/31/6 9/7/6 4/13/6
f 11/32/1 14/33/1 10/34/1 2/35/1
f 13/13/3 19/12/3 15/36/3 8/23/3
f 20/37/7 16/38/7 15/39/7 19/10/7
f 17/40/7 20/37/7 19/10/7 18/41/7
f 16/42/1 20/43/1 14/44/1 11/45/1
