# Blender 4.2.3 LTS
# www.blender.org
mtllib KRASPEDO 40x40.mtl
g KRASPEDO_40x40_KRASPEDO_40x40
v 0.200000 0.100000 -0.200000
v 0.200000 0.000000 -0.200000
v 0.200000 0.100000 0.200000
v 0.200000 0.000000 0.200000
v -0.200000 0.100000 -0.200000
v -0.200000 0.000000 -0.200000
v -0.200000 0.100000 0.200000
v -0.200000 0.000000 0.200000
vn -0.0000 1.0000 -0.0000
vn -0.0000 -0.0000 1.0000
vn -1.0000 -0.0000 -0.0000
vn -0.0000 -1.0000 -0.0000
vn 1.0000 -0.0000 -0.0000
vn -0.0000 -0.0000 -1.0000
vt 0.500191 0.250048
vt 0.500191 0.000096
vt 0.750144 0.000096
vt 0.750144 0.250048
vt 0.250048 0.749952
vt 0.500000 0.749952
vt 0.500000 0.999904
vt 0.250048 0.999904
vt 0.250048 0.000096
vt 0.500000 0.000096
vt 0.500000 0.250048
vt 0.250048 0.250048
vt 0.001646 0.416289
vt 0.251598 0.416289
vt 0.251598 0.666242
vt 0.001646 0.666242
vt 0.003567 0.749582
vt 0.253519 0.749582
vt 0.253519 0.999534
vt 0.003567 0.999534
vt 0.743010 0.335309
vt 0.992962 0.335309
vt 0.992962 0.585261
vt 0.743010 0.585261
s 0
usemtl KRASPEDO_40x40
f 1/1/1 5/2/1 7/3/1 3/4/1
f 4/5/2 3/6/2 7/7/2 8/8/2
f 8/9/3 7/10/3 5/11/3 6/12/3
f 6/13/4 2/14/4 4/15/4 8/16/4
f 2/17/5 1/18/5 3/19/5 4/20/5
f 6/21/6 5/22/6 1/23/6 2/24/6
