# Blender 4.2.3 LTS
# www.blender.org
mtllib PVM_1 40x40.mtl
g PVM_1_40x40_PVM_1_40x40
v 0.192500 0.105000 -0.192500
v 0.200000 -0.000000 -0.200000
v 0.192500 0.105000 0.192500
v 0.200000 -0.000000 0.200000
v -0.192500 0.105000 -0.192500
v -0.200000 -0.000000 -0.200000
v -0.192500 0.105000 0.192500
v -0.200000 -0.000000 0.200000
v 0.007500 0.105000 0.192500
v 0.192500 0.105000 -0.007500
v -0.192500 0.105000 -0.007500
v -0.007500 0.105000 -0.192500
v -0.007500 0.105000 -0.007500
v -0.192500 0.105000 0.007500
v -0.200000 0.100000 -0.200000
v 0.007500 0.105000 -0.192500
v 0.007500 0.105000 -0.007500
v 0.000000 0.100000 -0.200000
v 0.200000 0.100000 -0.200000
v 0.192500 0.105000 0.007500
v 0.007500 0.105000 0.007500
v 0.200000 0.100000 0.000000
v 0.200000 0.100000 0.200000
v -0.007500 0.105000 0.192500
v -0.007500 0.105000 0.007500
v 0.000000 0.100000 0.200000
v -0.200000 0.100000 0.200000
v -0.200000 0.100000 0.000000
v 0.000000 0.100000 0.000000
vn -0.0000 1.0000 -0.0000
vn -0.0000 -0.0000 1.0000
vn -1.0000 -0.0000 -0.0000
vn -0.0000 -1.0000 -0.0000
vn 1.0000 -0.0000 -0.0000
vn -0.0000 -0.0000 -1.0000
vn -0.5547 0.8321 -0.0000
vn -0.0000 0.8321 -0.5547
vn 0.5547 0.8320 -0.0000
vn -0.0000 0.8321 0.5547
vn 0.5547 0.8321 -0.0000
vn -0.5547 0.8320 -0.0000
vt 0.518746 0.481254
vt 0.518746 0.018846
vt 0.981153 0.018846
vt 0.981153 0.481254
vt 0.375000 0.000000
vt 0.625000 0.000000
vt 0.625000 0.500000
vt 0.625000 1.000000
vt 0.375000 1.000000
vt 0.750000 0.000000
vt 1.000000 0.000000
vt 1.000000 0.500000
vt 1.000000 1.000000
vt 0.750000 1.000000
vt 0.000000 0.000000
vt 0.000000 1.000000
vt 0.250025 0.999950
vt 0.000050 0.999950
vt 0.000050 0.500000
vt 0.000050 0.000050
vt 0.250025 0.000050
vt 0.518746 0.981154
vt 0.518746 0.518746
vt 0.981153 0.518746
vt 0.981154 0.981154
vt 0.018846 0.981154
vt 0.018846 0.518746
vt 0.481254 0.518746
vt 0.481254 0.981154
vt 0.018846 0.481254
vt 0.018846 0.018846
vt 0.481254 0.018846
vt 0.481254 0.481254
vt 0.000100 0.000100
vt 0.500000 0.000100
vt 0.000100 0.500000
vt 0.500000 0.500000
vt 0.000100 0.999900
vt 0.500000 0.999900
vt 0.999900 0.999900
vt 0.999900 0.500000
vt 0.999900 0.000100
s 0
usemtl PVM_1_40x40
f 25/1/1 14/2/1 7/3/1 24/4/1
f 4/5/2 23/6/2 26/7/2 27/8/2 8/9/2
f 8/10/3 27/11/3 28/12/3 15/13/3 6/14/3
f 6/15/4 2/11/4 4/13/4 8/16/4
f 2/5/5 19/6/5 22/7/5 23/8/5 4/9/5
f 6/17/6 15/18/6 18/19/6 19/20/6 2/21/6
f 20/22/1 21/23/1 9/24/1 3/25/1
f 1/26/1 16/27/1 17/28/1 10/29/1
f 12/30/1 5/31/1 11/32/1 13/33/1
f 11/32/7 5/31/7 15/34/7 28/35/7
f 5/31/8 12/30/8 18/36/8 15/34/8
f 12/30/9 13/33/9 29/37/9 18/36/9
f 13/33/10 11/32/10 28/35/10 29/37/10
f 16/27/8 1/26/8 19/38/8 18/36/8
f 1/26/9 10/29/9 22/39/9 19/38/9
f 17/28/7 16/27/7 18/36/7 29/37/7
f 10/29/10 17/28/10 29/37/10 22/39/10
f 20/22/11 3/25/11 23/40/11 22/39/11
f 3/25/10 9/24/10 26/41/10 23/40/10
f 9/24/12 21/23/12 29/37/12 26/41/12
f 21/23/8 20/22/8 22/39/8 29/37/8
f 24/4/10 7/3/10 27/42/10 26/41/10
f 7/3/12 14/2/12 28/35/12 27/42/12
f 25/1/11 24/4/11 26/41/11 29/37/11
f 14/2/8 25/1/8 29/37/8 28/35/8
