# Blender 4.2.3 LTS
# www.blender.org
mtllib typeA_30x30.mtl
g typeA_30x30_typeA_30x30
v -0.150000 -0.000000 0.150000
v -0.150000 0.010000 0.150000
v -0.150000 -0.000000 -0.150000
v -0.150000 0.010000 -0.150000
v 0.150000 -0.000000 0.150000
v 0.150000 0.010000 0.150000
v 0.150000 -0.000000 -0.150000
v 0.150000 0.010000 -0.150000
v -0.145500 0.010000 0.150000
v -0.143500 0.015000 0.150000
v -0.145500 0.010000 -0.150000
v -0.143500 0.015000 -0.150000
v -0.106465 0.010000 0.150000
v -0.108500 0.015000 0.150000
v -0.106465 0.010000 -0.150000
v -0.108500 0.015000 -0.150000
v 0.106500 0.010000 0.150000
v 0.108500 0.015000 0.150000
v 0.106500 0.010000 -0.150000
v 0.108500 0.015000 -0.150000
v 0.145535 0.010000 0.150000
v 0.143500 0.015000 0.150000
v 0.145535 0.010000 -0.150000
v 0.143500 0.015000 -0.150000
v 0.022500 0.010000 0.150000
v 0.024500 0.015000 0.150000
v 0.022500 0.010000 -0.150000
v 0.024500 0.015000 -0.150000
v 0.061535 0.010000 0.150000
v 0.059500 0.015000 0.150000
v 0.061535 0.010000 -0.150000
v 0.059500 0.015000 -0.150000
v -0.061500 0.010000 0.150000
v -0.059500 0.015000 0.150000
v -0.061500 0.010000 -0.150000
v -0.059500 0.015000 -0.150000
v -0.022465 0.010000 0.150000
v -0.024500 0.015000 0.150000
v -0.022465 0.010000 -0.150000
v -0.024500 0.015000 -0.150000
vn -1.0000 -0.0000 -0.0000
vn -0.0000 -0.0000 -1.0000
vn 1.0000 -0.0000 -0.0000
vn -0.0000 -0.0000 1.0000
vn -0.0000 -1.0000 -0.0000
vn -0.0000 1.0000 -0.0000
vn -0.9285 0.3714 -0.0000
vn 0.9262 0.3770 -0.0000
vt 0.762311 0.999651
vt 0.745668 0.999651
vt 0.745668 0.500349
vt 0.762311 0.500349
vt 0.534333 0.999651
vt 0.517690 0.999651
vt 0.517689 0.500349
vt 0.534333 0.500349
vt 0.728327 0.500349
vt 0.744970 0.500349
vt 0.744970 0.999651
vt 0.728327 0.999651
vt 0.500349 0.500349
vt 0.516992 0.500349
vt 0.516992 0.999651
vt 0.500349 0.999651
vt 0.499651 0.999651
vt 0.000349 0.999651
vt 0.000349 0.500349
vt 0.499651 0.500349
vt 0.000349 0.000349
vt 0.499651 0.000349
vt 0.499651 0.499651
vt 0.000349 0.499651
vt 0.553675 0.999650
vt 0.544713 0.999650
vt 0.544713 0.500349
vt 0.553675 0.500349
vt 0.593015 0.565316
vt 0.584693 0.561988
vt 0.584693 0.503736
vt 0.593015 0.500349
vt 0.708963 0.500348
vt 0.717947 0.500348
vt 0.717947 0.999651
vt 0.708963 0.999651
vt 0.602034 0.565316
vt 0.593712 0.561929
vt 0.593712 0.503677
vt 0.602034 0.500349
vt 0.631679 0.000349
vt 0.696646 0.000349
vt 0.696646 0.499651
vt 0.631679 0.499651
vt 0.998109 0.499651
vt 0.939857 0.499651
vt 0.939857 0.000349
vt 0.998109 0.000349
vt 0.574976 0.999651
vt 0.566014 0.999651
vt 0.566014 0.500349
vt 0.574976 0.500349
vt 0.629092 0.565316
vt 0.620770 0.561988
vt 0.620770 0.503736
vt 0.629092 0.500349
vt 0.699281 0.500349
vt 0.708265 0.500349
vt 0.708265 0.999651
vt 0.699281 0.999651
vt 0.575674 0.566014
vt 0.583996 0.569401
vt 0.583996 0.627653
vt 0.575674 0.630981
vt 0.697344 0.000349
vt 0.762311 0.000349
vt 0.762311 0.499651
vt 0.697344 0.499651
vt 0.763009 0.000349
vt 0.821261 0.000349
vt 0.821261 0.499651
vt 0.763009 0.499651
vt 0.640642 0.999650
vt 0.631679 0.999650
vt 0.631679 0.500349
vt 0.640641 0.500349
vt 0.602731 0.500349
vt 0.611053 0.503677
vt 0.611053 0.561929
vt 0.602731 0.565316
vt 0.535030 0.500349
vt 0.544015 0.500349
vt 0.544015 0.999651
vt 0.535031 0.999651
vt 0.575674 0.500349
vt 0.583996 0.503736
vt 0.583996 0.561988
vt 0.575674 0.565316
vt 0.500349 0.000349
vt 0.565316 0.000349
vt 0.565316 0.499651
vt 0.500349 0.499651
vt 0.880210 0.499651
vt 0.821958 0.499651
vt 0.821958 0.000349
vt 0.880210 0.000349
vt 0.565316 0.999651
vt 0.556353 0.999651
vt 0.556353 0.500349
vt 0.565316 0.500349
vt 0.611053 0.630981
vt 0.602732 0.627652
vt 0.602732 0.569401
vt 0.611053 0.566014
vt 0.718645 0.500348
vt 0.727629 0.500348
vt 0.727629 0.999651
vt 0.718645 0.999651
vt 0.611751 0.500349
vt 0.620072 0.503736
vt 0.620072 0.561988
vt 0.611751 0.565316
vt 0.630981 0.499651
vt 0.566014 0.499651
vt 0.566014 0.000349
vt 0.630981 0.000349
vt 0.939160 0.499651
vt 0.880908 0.499651
vt 0.880908 0.000349
vt 0.939160 0.000349
s 1
usemtl typeA_30x30_MATS
f 1/1/1 2/2/1 4/3/1 3/4/1
f 3/5/2 4/6/2 8/7/2 7/8/2
f 7/9/3 8/10/3 6/11/3 5/12/3
f 5/13/4 6/14/4 2/15/4 1/16/4
f 3/17/5 7/18/5 5/19/5 1/20/5
f 8/21/6 4/22/6 2/23/6 6/24/6
f 9/25/7 10/26/7 12/27/7 11/28/7
f 11/29/2 12/30/2 16/31/2 15/32/2
f 15/33/8 16/34/8 14/35/8 13/36/8
f 13/37/4 14/38/4 10/39/4 9/40/4
f 11/41/5 15/42/5 13/43/5 9/44/5
f 16/45/6 12/46/6 10/47/6 14/48/6
f 17/49/7 18/50/7 20/51/7 19/52/7
f 19/53/2 20/54/2 24/55/2 23/56/2
f 23/57/8 24/58/8 22/59/8 21/60/8
f 21/61/4 22/62/4 18/63/4 17/64/4
f 19/65/5 23/66/5 21/67/5 17/68/5
f 24/69/6 20/70/6 18/71/6 22/72/6
f 25/73/7 26/74/7 28/75/7 27/76/7
f 27/77/2 28/78/2 32/79/2 31/80/2
f 31/81/8 32/82/8 30/83/8 29/84/8
f 29/85/4 30/86/4 26/87/4 25/88/4
f 27/89/5 31/90/5 29/91/5 25/92/5
f 32/93/6 28/94/6 26/95/6 30/96/6
f 33/97/7 34/98/7 36/99/7 35/100/7
f 35/101/2 36/102/2 40/103/2 39/104/2
f 39/105/8 40/106/8 38/107/8 37/108/8
f 37/109/4 38/110/4 34/111/4 33/112/4
f 35/113/5 39/114/5 37/115/5 33/116/5
f 40/117/6 36/118/6 34/119/6 38/120/6
